<?xml version="1.0" encoding="UTF-8"?>
<svg version="1.1" xmlns="http://www.w3.org/2000/svg" width="256" height="256">
<path d="M0 0 C2.81485619 2.48369664 3.93119986 4.29359959 5.125 7.875 C5.15716295 14.09916496 3.47516358 19.21493802 0.73046875 24.71484375 C0.38740692 25.4299411 0.04434509 26.14503845 -0.30911255 26.88180542 C-1.423271 29.19804022 -2.55543783 31.50497116 -3.6875 33.8125 C-4.47297368 35.43960668 -5.2568929 37.06746462 -6.03930664 38.69604492 C-7.59935138 41.94188885 -9.16445926 45.1852047 -10.73339844 48.42675781 C-13.49605998 54.14843836 -16.1656127 59.91148364 -18.8125 65.6875 C-19.26890869 66.67919189 -19.72531738 67.67088379 -20.19555664 68.69262695 C-22.10051764 72.83203654 -24.00196827 76.97305468 -25.90289307 81.11431885 C-28.2445274 86.21529704 -30.58878734 91.31505743 -32.93557739 96.41366577 C-33.71352478 98.1052697 -34.49048213 99.79732937 -35.2663269 101.48989868 C-39.14779303 109.95755839 -43.07084214 118.40135204 -47.1953125 126.75390625 C-47.51276428 127.40404694 -47.83021606 128.05418762 -48.1572876 128.72402954 C-51.30911799 135.03426751 -54.93760959 139.73871607 -60.625 143.875 C-66.89671329 145.80475794 -73.2754853 145.96339835 -79.3125 143.1875 C-83.62908136 140.67170105 -86.01874533 137.71594753 -88.125 133.1875 C-90.27769102 123.67978132 -88.47164214 115.91466498 -83.4140625 107.67578125 C-82.44972203 106.17515708 -81.47797946 104.6792713 -80.5 103.1875 C-79.41438665 101.50062897 -78.3297863 99.81310565 -77.24609375 98.125 C-76.68776855 97.25875 -76.12944336 96.3925 -75.55419922 95.5 C-72.84144507 91.2593003 -70.20281074 86.97353949 -67.5625 82.6875 C-61.0106473 72.07720424 -54.40200476 61.50289387 -47.78662109 50.93212891 C-45.25139092 46.87770333 -42.72203737 42.81962455 -40.19238281 38.76171875 C-38.33130865 35.78013292 -36.46506257 32.80184189 -34.59765625 29.82421875 C-32.04546192 25.75457624 -29.51550745 21.67203795 -26.99609375 17.58203125 C-25.74775959 15.57529451 -24.49907488 13.56877577 -23.25 11.5625 C-22.6820874 10.63099121 -22.1141748 9.69948242 -21.52905273 8.73974609 C-16.16068797 0.16997441 -10.11896482 -3.95959493 0 0 Z " fill="#000000" transform="translate(195.875,56.125)"/>
<path d="M0 0 C1.78760742 -0.02416992 1.78760742 -0.02416992 3.61132812 -0.04882812 C4.75923828 -0.04947266 5.90714844 -0.05011719 7.08984375 -0.05078125 C8.63273071 -0.05525269 8.63273071 -0.05525269 10.20678711 -0.05981445 C13.53385079 0.3739525 15.37705563 1.327024 18.0625 3.3125 C20.87975233 7.5383785 20.86208384 11.34874688 20.0625 16.3125 C17.87227082 19.13674288 16.23232793 20.72758603 13.0625 22.3125 C11.62500382 22.33359533 10.18668467 22.30270135 8.75 22.25 C-22.06776929 22.08843896 -48.26745307 30.82290015 -70.625 52.5 C-76.88232471 58.7850447 -81.57414107 65.62130545 -85.9375 73.3125 C-86.50082031 74.29863281 -87.06414062 75.28476563 -87.64453125 76.30078125 C-95.02429223 90.10747332 -98.56358163 105.12302261 -99.3125 120.6875 C-99.65796652 126.17859945 -100.07625978 129.34093863 -103.9375 133.3125 C-106.88275731 135.11925448 -108.93794545 135.59842482 -112.375 135.3125 C-113.11621094 135.27125 -113.85742188 135.23 -114.62109375 135.1875 C-118.13762432 133.85916467 -120.15804124 131.52493532 -121.9375 128.3125 C-122.39428352 125.46060818 -122.5621476 123.32109264 -122.4375 120.5 C-122.41905029 119.76080322 -122.40060059 119.02160645 -122.3815918 118.26000977 C-121.09161867 84.68161849 -105.70486432 53.76908378 -81.44482422 30.90576172 C-67.93185916 18.60544149 -51.71797977 9.71717152 -34.25 4.5 C-33.59805664 4.30510986 -32.94611328 4.11021973 -32.27441406 3.90942383 C-21.58932174 0.91035474 -11.07056779 -0.03063245 0 0 Z " fill="#000000" transform="translate(127.9375,64.6875)"/>
<path d="M0 0 C18.86812227 12.89081636 29.1093975 42.7203134 33.421875 63.78125 C34.58136274 70.23677636 35.25483907 76.51372948 35.375 83.0625 C35.43107422 84.22749023 35.43107422 84.22749023 35.48828125 85.41601562 C35.55038032 89.49040443 35.29216434 92.20341891 32.75390625 95.48828125 C29.35286351 98.59022519 27.65215446 99.02400003 23.21875 99.23828125 C19.64482569 98.85446191 17.62355372 97.36759726 15 95 C13.28155031 92.15746281 12.71618036 89.87412571 12.5078125 86.578125 C12.4449707 85.72549072 12.38212891 84.87285645 12.31738281 83.99438477 C12.25389648 83.08873779 12.19041016 82.18309082 12.125 81.25 C10.0740581 56.90448249 1.14621267 36.60379455 -14.46875 17.890625 C-17.40202575 14.26892738 -17.38547336 11.62568031 -17 7 C-13.03379512 -0.50745923 -8.04841733 -2.63838846 0 0 Z " fill="#000000" transform="translate(215,101)"/>
</svg>
